<?xml version="1.0" encoding="UTF-8"?>
<svg id="Layer_1" data-name="Layer 1" xmlns="http://www.w3.org/2000/svg" viewBox="0 0 1008.64 332">
  <defs>
    <style>
      .cls-1 {
        fill: #0082c2;
      }
    </style>
  </defs>
  <path class="cls-1" d="M488.63,0C397.1,0,322.64,74.47,322.64,166s74.47,166,166,166,166-74.47,166-166S580.17,0,488.63,0ZM488.63,261.89c-52.87,0-95.89-43.01-95.89-95.89s43.01-95.89,95.89-95.89,95.89,43.01,95.89,95.89-43.02,95.89-95.89,95.89Z"/>
  <path class="cls-1" d="M166,70.11c17.19,0,34.04,4.59,48.72,13.28,16.66,9.86,38.16,4.34,48.02-12.33,9.86-16.66,4.34-38.16-12.32-48.01C224.93,7.97,195.74,0,166,0,74.47,0,0,74.47,0,166s74.47,166,166,166c29.74,0,58.93-7.97,84.42-23.04,16.66-9.86,22.18-31.36,12.32-48.01-9.86-16.66-31.35-22.18-48.02-12.33-14.68,8.69-31.53,13.28-48.72,13.28-52.87,0-95.89-43.02-95.89-95.9s43.02-95.89,95.89-95.89Z"/>
  <path class="cls-1" d="M908.35,169.25l91.32-103.28c13.09-14.8,11.7-37.4-3.1-50.49-14.8-13.08-37.4-11.7-50.49,3.1l-85.48,96.67-85.48-96.67c-13.09-14.8-35.69-16.19-50.49-3.1-14.8,13.08-16.19,35.69-3.1,50.49l91.32,103.28-91.32,103.28c-13.08,14.8-11.7,37.4,3.1,50.49,14.8,13.09,37.4,11.7,50.49-3.1l85.48-96.67,85.48,96.67c13.08,14.8,35.69,16.19,50.49,3.1,14.8-13.08,16.19-35.69,3.1-50.49l-91.32-103.28Z"/>
</svg>